<svg width="44" height="44" viewBox="0 0 44 44" fill="none" xmlns="http://www.w3.org/2000/svg">
<rect width="44" height="44" rx="5" fill="#E9ECFF"/>
<path d="M29.5 23.5758V21.1825C29.4975 19.3304 28.8044 17.5459 27.5561 16.1777C26.3078 14.8096 24.5941 13.9562 22.75 13.7844V12.25C22.75 12.0511 22.671 11.8603 22.5303 11.7197C22.3897 11.579 22.1989 11.5 22 11.5C21.8011 11.5 21.6103 11.579 21.4697 11.7197C21.329 11.8603 21.25 12.0511 21.25 12.25V13.7846C19.4059 13.9563 17.6923 14.8097 16.4439 16.1778C15.1956 17.5459 14.5025 19.3305 14.5 21.1825V23.5757C13.6536 23.7496 12.8931 24.2101 12.3466 24.8794C11.8002 25.5487 11.5011 26.3859 11.5 27.25C11.5007 27.8465 11.7379 28.4185 12.1597 28.8403C12.5815 29.2621 13.1535 29.4993 13.75 29.5H18.3258C18.4988 30.3468 18.9589 31.1079 19.6284 31.6545C20.2979 32.2011 21.1357 32.4997 22 32.4997C22.8643 32.4997 23.7021 32.2011 24.3716 31.6545C25.0411 31.1079 25.5012 30.3468 25.6742 29.5H30.25C30.8465 29.4993 31.4185 29.2621 31.8403 28.8403C32.2621 28.4185 32.4993 27.8465 32.5 27.25C32.4988 26.386 32.1998 25.5487 31.6533 24.8795C31.1068 24.2102 30.3463 23.7498 29.5 23.5758ZM16 21.1825C16.002 19.6097 16.6277 18.1019 17.7398 16.9898C18.8519 15.8777 20.3597 15.252 21.9325 15.25H22.0675C23.6403 15.252 25.1481 15.8777 26.2602 16.9898C27.3723 18.1019 27.998 19.6097 28 21.1825V23.5H16V21.1825ZM22 31C21.5362 30.9986 21.0842 30.8536 20.7061 30.5851C20.328 30.3165 20.0423 29.9375 19.8882 29.5H24.1118C23.9577 29.9375 23.672 30.3165 23.2939 30.5851C22.9158 30.8536 22.4638 30.9986 22 31ZM30.25 28H13.75C13.5511 27.9999 13.3604 27.9208 13.2198 27.7802C13.0792 27.6396 13.0001 27.4489 13 27.25C13.0007 26.6535 13.2379 26.0815 13.6597 25.6597C14.0815 25.2379 14.6535 25.0007 15.25 25H28.75C29.3465 25.0007 29.9185 25.2379 30.3403 25.6597C30.7621 26.0815 30.9993 26.6535 31 27.25C30.9999 27.4489 30.9208 27.6396 30.7802 27.7802C30.6396 27.9208 30.4489 27.9999 30.25 28Z" fill="#221F1F"/>
</svg>
