<svg width="25" height="24" viewBox="0 0 25 24" fill="none" xmlns="http://www.w3.org/2000/svg">
<path d="M20.5568 1.45378C20.5119 1.70056 20.6573 1.95288 20.9011 2.00576C22.2969 2.30862 23.3204 3.66291 23.3204 5.2365V10.126C23.3204 11.9508 21.9628 13.4202 20.3124 13.4202H19.8521C19.601 13.4202 19.4122 13.6396 19.4122 13.8913V15.8271C19.4122 16.1781 19.2036 16.3844 19.0125 16.4629C18.8216 16.5412 18.5478 16.5346 18.3412 16.2768L16.1839 13.5844L16.1839 13.5843C16.1015 13.4817 15.9803 13.4202 15.8501 13.4202H11.3424C9.69201 13.4202 8.33441 11.9508 8.33441 10.126V5.2365C8.33441 3.41171 9.69201 1.94236 11.3424 1.94236H19.6328C19.8838 1.94236 20.0726 1.72294 20.0726 1.47123C20.0726 1.21952 19.8838 1.0001 19.6328 1.0001H11.3424C9.19052 1.0001 7.45473 2.90891 7.45473 5.2365V7.15101H4.68781C2.53593 7.15101 0.800146 9.05982 0.800146 11.3874V15.5347C0.800146 15.7864 0.988915 16.0058 1.23999 16.0058C1.49106 16.0058 1.67983 15.7864 1.67983 15.5347V11.3874C1.67983 9.56261 3.03743 8.09327 4.68781 8.09327H7.45477V10.126C7.45477 12.4536 9.19056 14.3625 11.3424 14.3625H15.6479L16.6658 15.6329V16.277C16.6658 18.1018 15.3082 19.5711 13.6579 19.5711H9.15018C9.01998 19.5711 8.89874 19.6326 8.81638 19.7353L8.81635 19.7353L6.65914 22.4277C6.65913 22.4277 6.65912 22.4277 6.65912 22.4277C6.45237 22.6855 6.17881 22.692 5.98791 22.6137L5.94994 22.7062L5.98791 22.6137C5.79667 22.5352 5.58803 22.3288 5.58803 21.9776V20.0422C5.58803 19.7905 5.39926 19.5711 5.14819 19.5711H4.68781C3.26358 19.5711 2.01839 18.4644 1.7383 16.925L1.7383 16.925C1.69297 16.6764 1.46609 16.4999 1.21916 16.5535L1.21915 16.5535C0.975411 16.6064 0.830022 16.8587 0.874846 17.1054L0.874851 17.1055C1.23302 19.074 2.83181 20.5133 4.68781 20.5133H4.70834V21.9775C4.70834 22.6536 5.08332 23.2516 5.67282 23.4935L5.71078 23.401L5.67283 23.4935C5.84728 23.5651 6.0275 23.6001 6.20591 23.6001C6.62985 23.6001 7.03728 23.4025 7.32666 23.0416L7.32668 23.0416L9.35244 20.5133H13.6579C15.6761 20.5133 17.3277 18.8337 17.5249 16.705L17.6737 16.8907L17.6737 16.8907C17.963 17.2517 18.3703 17.4492 18.7944 17.4492C18.9728 17.4492 19.1531 17.4142 19.3276 17.3426L19.3276 17.3426C19.917 17.1006 20.292 16.5029 20.292 15.8271V14.3624H20.3125C22.4644 14.3624 24.2001 12.4536 24.2001 10.126V5.23645C24.2001 3.22789 22.8922 1.47636 21.076 1.08224L21.0759 1.08224C20.8284 1.02853 20.602 1.20524 20.5568 1.45378ZM20.5568 1.45378L20.6552 1.47168M20.5568 1.45378C20.5568 1.45379 20.5568 1.4538 20.5568 1.4538L20.6552 1.47168M20.6552 1.47168C20.6917 1.27062 20.8702 1.13993 21.0547 1.17997C22.8193 1.56288 24.1001 3.2689 24.1001 5.23645V10.126C24.1001 12.4068 22.401 14.2624 20.3125 14.2624H20.292L7.55473 7.15101V5.2365C7.55473 2.95566 9.25385 1.1001 11.3424 1.1001H19.6328C19.8205 1.1001 19.9726 1.26627 19.9726 1.47123C19.9726 1.67619 19.8205 1.84236 19.6328 1.84236H11.3424C9.62868 1.84236 8.23441 3.36495 8.23441 5.2365V10.126C8.23441 11.9976 9.62868 13.5202 11.3424 13.5202H15.8501C15.9481 13.5202 16.0413 13.5664 16.1059 13.6469L18.2632 16.3394C18.5029 16.6384 18.827 16.6471 19.0504 16.5554C19.2736 16.4637 19.5122 16.2243 19.5122 15.8271V13.8913C19.5122 13.6864 19.6643 13.5202 19.8521 13.5202H20.3124C22.0262 13.5202 23.4204 11.9976 23.4204 10.126V5.2365C23.4204 3.62192 22.3698 2.22211 20.9223 1.90803C20.7382 1.8681 20.6186 1.67273 20.6552 1.47168ZM17.7517 16.8282L17.5361 16.5591L17.7517 16.8282ZM17.7517 16.8282C18.0232 17.1668 18.4024 17.3492 18.7944 17.3492C18.9596 17.3492 19.1271 17.3168 19.2896 17.2501C19.8378 17.0251 20.192 16.4665 20.192 15.8271V14.3624L17.7517 16.8282ZM1.63992 16.9429C1.60326 16.7419 1.42432 16.6113 1.24035 16.6512C1.05629 16.6911 0.936714 16.8865 0.973235 17.0876C1.32386 19.0146 2.88605 20.4133 4.68781 20.4133H4.70834L1.63992 16.9429ZM7.24864 22.979L9.30442 20.4133H13.6579C15.6495 20.4133 17.2862 18.7257 17.4338 16.5913L7.24864 22.979Z" fill="#959595" stroke="#959595" stroke-width="0.2"/>
</svg>
